/* XPM */
static char * large_kmahjongg_xpm[] = {
"44 44 256 2",
"  	c None",
". 	c #000000",
"+ 	c #9A9E82",
"@ 	c #9A9E77",
"# 	c #6F7A64",
"$ 	c #909171",
"% 	c #A9AA81",
"& 	c #FFFFE5",
"* 	c #FFFFCE",
"= 	c #FFFFD7",
"- 	c #FFFFD1",
"; 	c #C5B07C",
"> 	c #2A0F01",
", 	c #FFFEC0",
"' 	c #FFFFDF",
") 	c #FFFFD3",
"! 	c #89673B",
"~ 	c #FFDAA7",
"{ 	c #FFD6A3",
"] 	c #FFD9A5",
"^ 	c #FFE9B9",
"/ 	c #F5AF66",
"( 	c #AC4700",
"_ 	c #E4E7AE",
": 	c #FDD7A3",
"< 	c #F9D9A3",
"[ 	c #FADDA8",
"} 	c #FFDFAB",
"| 	c #EC8931",
"1 	c #6D2700",
"2 	c #FF261D",
"3 	c #FF8669",
"4 	c #FF2E23",
"5 	c #FFAA84",
"6 	c #F6C577",
"7 	c #BFC17C",
"8 	c #10810A",
"9 	c #599E3B",
"0 	c #F6DCA8",
"a 	c #F68E3A",
"b 	c #FFD9A6",
"c 	c #FF6E55",
"d 	c #FF5743",
"e 	c #FF0101",
"f 	c #FF9B78",
"g 	c #A74500",
"h 	c #FFFFC9",
"i 	c #DBCD8F",
"j 	c #7FAD55",
"k 	c #97BE6B",
"l 	c #FFDDA6",
"m 	c #F08C35",
"n 	c #FFBE96",
"o 	c #F5D7A1",
"p 	c #E2CF93",
"q 	c #EAD39B",
"r 	c #FFDFAC",
"s 	c #EA8933",
"t 	c #FFD6A5",
"u 	c #FFF6C2",
"v 	c #B4BE75",
"w 	c #017B00",
"x 	c #3B982A",
"y 	c #FF0A08",
"z 	c #F8BA75",
"A 	c #FFFDC4",
"B 	c #C7C683",
"C 	c #D0CD8C",
"D 	c #FCDEA9",
"E 	c #656851",
"F 	c #FF3B2D",
"G 	c #FF4939",
"H 	c #FDCB98",
"I 	c #FFFFC6",
"J 	c #A3BA6B",
"K 	c #B2C77D",
"L 	c #FDDEAB",
"M 	c #ED8A34",
"N 	c #FFFFCB",
"O 	c #999D77",
"P 	c #FF110D",
"Q 	c #FFD3A3",
"R 	c #FFF1C3",
"S 	c #FFF2A6",
"T 	c #FAEEAC",
"U 	c #FFE3AC",
"V 	c #FFF5BC",
"W 	c #ECAB6A",
"X 	c #943A00",
"Y 	c #8D9977",
"Z 	c #FF0907",
"` 	c #E8E0AE",
" .	c #E98831",
"..	c #FBD5A7",
"+.	c #5A48DE",
"@.	c #B9A9BC",
"#.	c #6556DC",
"$.	c #C8B5CD",
"%.	c #F8C75B",
"&.	c #B64900",
"*.	c #FFE3B2",
"=.	c #FCD8B0",
"-.	c #FAFABC",
";.	c #FFEABE",
">.	c #D2D89B",
",.	c #FFF8D2",
"'.	c #FFEDBE",
").	c #E98D36",
"!.	c #6C2500",
"~.	c #F9D7AA",
"{.	c #4E47E6",
"].	c #7668D6",
"^.	c #A18CCA",
"/.	c #0202FE",
"(.	c #060200",
"_.	c #CCBF8E",
":.	c #F3BF7D",
"<.	c #F5D48B",
"[.	c #FAC687",
"}.	c #CE8446",
"|.	c #7A3602",
"1.	c #ED8223",
"2.	c #762D00",
"3.	c #FFEDA2",
"4.	c #140902",
"5.	c #BF5500",
"6.	c #BA5300",
"7.	c #CF5E00",
"8.	c #5F1A01",
"9.	c #0C1515",
"0.	c #E8E8AD",
"a.	c #FFFFC4",
"b.	c #FFFFCC",
"c.	c #3B2810",
"d.	c #0D0BFB",
"e.	c #312BEF",
"f.	c #E1C2B1",
"g.	c #F9EFB9",
"h.	c #A44200",
"i.	c #0B0100",
"j.	c #191B16",
"k.	c #E8E8B3",
"l.	c #FFEDB5",
"m.	c #D57A27",
"n.	c #6D3A17",
"o.	c #FED9A8",
"p.	c #4339E9",
"q.	c #1916F7",
"r.	c #EBD5BF",
"s.	c #FBB55B",
"t.	c #B45404",
"u.	c #877952",
"v.	c #7D7F64",
"w.	c #FFDDAB",
"x.	c #F99637",
"y.	c #6F2200",
"z.	c #FDD9A4",
"A.	c #EAD8A6",
"B.	c #F5A653",
"C.	c #C6620A",
"D.	c #715E3C",
"E.	c #FF1B14",
"F.	c #E8933B",
"G.	c #FFF5B6",
"H.	c #E59B51",
"I.	c #C26008",
"J.	c #E48631",
"K.	c #5B1500",
"L.	c #E2E6AE",
"M.	c #FAAE50",
"N.	c #FFFDCE",
"O.	c #2E8B1D",
"P.	c #FFFFAC",
"Q.	c #645CEB",
"R.	c #D8C7CE",
"S.	c #FFFCCC",
"T.	c #FBB888",
"U.	c #FFD78E",
"V.	c #FDDFA3",
"W.	c #DC914E",
"X.	c #C45C03",
"Y.	c #C75B04",
"Z.	c #C65D04",
"`.	c #C35402",
" +	c #D47014",
".+	c #FFEFB9",
"++	c #A29472",
"@+	c #E2B76A",
"#+	c #E1B476",
"$+	c #FFDDA8",
"%+	c #9C946D",
"&+	c #E6E6AC",
"*+	c #EDF2B7",
"=+	c #FFFBC3",
"-+	c #FFD5AA",
";+	c #DCE0AA",
">+	c #FF44E3",
",+	c #FF31EA",
"'+	c #FF57DF",
")+	c #FFFBB5",
"!+	c #12130E",
"~+	c #814812",
"{+	c #D86607",
"]+	c #CB6815",
"^+	c #F07811",
"/+	c #FF09FA",
"(+	c #FF00FF",
"_+	c #FF6DD2",
":+	c #FFD8C0",
"<+	c #DAA155",
"[+	c #C3D18C",
"}+	c #FFF9D4",
"|+	c #A15A1B",
"1+	c #B58948",
"2+	c #E6A953",
"3+	c #501B00",
"4+	c #FF1AF5",
"5+	c #FF95CE",
"6+	c #E5BA4F",
"7+	c #BC5B06",
"8+	c #D4D3A5",
"9+	c #FFA9BC",
"0+	c #FFAED9",
"a+	c #6C3505",
"b+	c #FFE2A8",
"c+	c #FFDEA8",
"d+	c #BB5600",
"e+	c #E3C37C",
"f+	c #F9F9D0",
"g+	c #F9F9CE",
"h+	c #FFFF9B",
"i+	c #F5B365",
"j+	c #C75B00",
"k+	c #6B2C04",
"l+	c #FFC9C6",
"m+	c #C05800",
"n+	c #E9CB82",
"o+	c #F1C9A8",
"p+	c #8A76D1",
"q+	c #F6D1A8",
"r+	c #FF04FD",
"s+	c #FF74E5",
"t+	c #F3D87B",
"u+	c #FFB84C",
"v+	c #FFBCB5",
"w+	c #FF03FE",
"x+	c #F3E0A6",
"y+	c #FFE1D9",
"z+	c #F8C06D",
"A+	c #ECCAAC",
"B+	c #F4E3BC",
"C+	c #F6D26D",
"D+	c #C5AEBA",
"E+	c #A94C00",
"F+	c #FAE9B8",
"G+	c #F3922D",
"                          . . . . . . . .                         . . . . . . . .       ",
"                        . + @ @ @ @ @ + # .                     . $ + @ @ @ @ @ @ .     ",
"                      . % & * = - * = & ; > .                   . , ' - = = = ' ) ! .   ",
"                      . @ * ~ { ] ~ { ^ / ( .                   . _ , : < < < [ } | 1 . ",
"                      . @ = { 2 3 ] 4 5 6 ( .                   . _ - 7 8 8 8 9 0 a 1 . ",
"                      . @ ) b 3 c d e f 6 g .                   . _ h i j j j k l m 1 . ",
"                      . @ * ~ { d e 4 n 6 g .                   . _ , o p p p q r s 1 . ",
"                      . @ = { 4 e 4 t u / g .                   . _ - v w w w x [ a 1 . ",
"    . . . . . . .     . @ - ~ n d y 4 n z g .                   . _ A q B B B C D s 1 . ",
"  . E E E E E E E .   . @ - b 5 F e G H z g .                   . _ I p J v v K L M 1 . ",
". % & N h N N N ' % . . O = { 4 P F Q R / g .                   . _ - v 8 w w x [ a 1 . ",
". @ - } S T U S V W X . Y * ~ H ] f Z 5 6 g .                   . _ A 0 i w 9 ` r  .1 . ",
". @ N ..+.@.b #.$.%.&.. + & ^ u * *.3 =.6 &..                   . -.) ;.R K >.,.'.).!.. ",
". @ N ~.{.].^./.^.%.g (.E _.z z z :.<.[.}.|.. . . . . . . . .   . % _.z z [.[.z :.1.2.. ",
". @ * ] 3.]././.$.%.g 4.. > 5.5.6.6.6.7.8.9.0.- a.a.a.a.h b.c..   . 8.7.6.6.6.6.6.7.|.. ",
". @ h ~.{.d.e.f.g./ h.. . . i.i.i.i.(.> i.j.k.I l.a.l.V I g.m.n..   . . . . . . . . .   ",
". @ b.o.^.p.q.].r.s.t.u.v.v.# # # # # 9.. j._ h 5 d b 5 c w.x.y..                       ",
". @ * z.A.]./.q.$.B.C., ' * ) ) ) = ) D.4.j._ - f E.f G Z b F.1 .                       ",
". @ h ~.e./.e.~.G.H.I.T u ~ r r r *.r J.K.9.L., U b 4 e 4 ~ F.1 .                       ",
". @ b.[ @.p./.p.$.M.I.T N.7 O.O.O.9 l a K.9.L.* 5 4 e d Q } s 1 .                       ",
". % ' *.P.$.Q.{.R.s.I.T S.C 9 9 9 j D m K.9.L.b.T.G P G 5 w.).1 .                       ",
". $ k.H [.U.U.U.V.W.I.T u : o o o 0 r  .K.9.L., r Q 2 e F ~ F.1 .                       ",
"  . c.X.Y.X.Z.Z.X.`. +T - v 8 8 8 x [ a K.9.L.- f Z e c .+r  .1 .                       ",
"  . ++@+@+@+@+@+#+! c.0.I p J J J K L M K.9.L.h T.c f d c $+).1 .                       ",
". % & * h h N * & %+> &+a.q B C B C } s K.9.*+h *.=+- 3 F *.F.1 .                       ",
". @ * ~ -+-+-+l ^ H.C.T - v w w w x [ a K.9.;+-.{ z.: l U o. .1 .                       ",
". @ N b >+,+'+3.)+H.C.T u A.7 w x >.L m 8.. !+~+{+C.C.C.]+m.^+|..                       ",
". @ h -+/+(+(+_+:+<+C., - ;.R k [+}+'.m.|+v.E 1+2+<+<+<+1+3+3+> .                       ",
". @ N -+'+,+4+(+5+6+7+_.q [.[.H H [.[.]+H.' - - b.b.* & 8+4.j.. . . . . . . .           ",
". @ * ~ ~ 3.9+(+0+%.h.. a+{+Z.Z.Z.Z.Z.&.H.N U l b+b+c+^ :.d+e+f+-.-.-.-.-.g+v..         ",
". @ N b '+5+h+9+:+i+g . . . . . . . . . u.h S _+>+>+-+P.:.j+<.= G.P.)+)+P.h <+k+.       ",
". @ h -+(+4+5+9+:+i+g .                 . h S >+(+(+_+l+:.m+n+I o+p+f.q+^.r.M.h..       ",
". @ h -+>+r+(+(+0+%.g .                 . h S _+4+4+(+s+t+m+n+a.f.q.p+^./.$.u+X .       ",
". @ * ~ l '+(+(+0+%.g .                 . N U -+$+v+w+'+t+m+n+N b x+].d./.$.u+X .       ",
". % & ^ )+l+5+5+y+z+g .                 . h S _+5+h+9+l+:.m+n+I A+].q.e.@.B+B.X .       ",
"  . _.z z 6 C+C+[.H.&..                 . h S ,+(+9+v+:+:.m+n+I A+{.q.e.D+B+B.X .       ",
"    . 5.5.6.6.6.6.7.E+.                 . h S '+w+(+(+s+t+m+n+N l 3.#././.R.u+X .       ",
"      . . . . . . . .                   . N U t _+(+(+s+t+m+n+I A+e.d.p.f.F+B.X .       ",
"                                        . ' '.P.:+s+s+0+<.m+n+I A+].q.q.p+r.M.X .       ",
"                                        . 8+[.[.[.t+t+U.W j+<.- b+h+p+e.q.R.u+X .       ",
"                                          . t.7.Z.Z.Z.Z.X.`.<.* w.} r =.=.'.B.X .       ",
"                                            . . . . . . . . . ! m  .G+G+G+).^+E+.       ",
"                                                              . 2.1 1 1 1 1 |.n..       ",
"                                                                . . . . . . . .         "};
