/* XPM */
static char *magick[] = {
/* columns rows colors chars-per-pixel */
"32 32 8 1",
"  c Gray0",
". c #000080",
"X c #008000",
"o c #800000",
"O c #808080",
"+ c #c0c0c0",
"@ c Gray100",
"# c None",
/* pixels */
"OOOOOOOOOOOOOOO   OOOOOOOOOOOOOO",
"O@@@@@.@@....@@@ @@@@@@.@.XXX@@O",
"O@@@@@@@@@@@@@@@O@@@@@.@.@.#X@@O",
"O@@@@@ooooo@@@@@O@@@XX.....#X@@O",
"O@@@@@###o@@@@@@O@@XX#.....#X@@O",
"O@@@@oooooo@@@@@O@@@X#.@@@.X@@@O",
"O@@@@@o#o#o@@@@@O@..@X#.#o#@..@O",
"O@@@@@ooooo@@@@@O@@......o.o.@@O",
"O@@@@@o#o#o@@@@@O@@@@XoooX@@@@@O",
"O@@@oooooooo@@@@O@@@@X@ooX@@@@@O",
"O@@@@oo@oo@o@@@@O@@@@X@@oX@@@@@O",
"O@@@@@@@@@@o@@@@O@@@@@@@o@@@@@@O",
"O@@@@@@@@@o@@@@@O@@@@@@@o@@@@@@O",
" O@@@@@@@@@@@@@OOO@@@@@@@@@@@@@ ",
"   O O O O O O     O O O O O O  ",
" O@O@O@O@O@O@O@O O@O@O@O@O@O@O@ ",
"O@@@@@@.@@@@@@@@O@@@@@@@@@@@@@@O",
"O@@@@......@@@@@O@@@@@@@@@@@@@@O",
"O@@@@@@.@@.@@@@@O@@@@@o@ooo@@@@O",
"O@@@@@.@@.@@@.@@O@@@@@@oo@@@@@@O",
"O@@@@@.@@....@@@O@@@@@@.@.XXX@@O",
"O@@@@@@@@@@@@@@@O@@@@@.@.@.#X@@O",
"O@@@@@ooooo@@@@@O@@@XX.....#X@@O",
"O@@@@@###o@@@@@@O@@XX#.....#X@@O",
"O@@@@oooooo@@@@@O@@@X#.@@@.X@@@O",
"O@@@@@o#o#o@@@@@O@..@X#.#o#@..@O",
"O@@@@@ooooo@@@@@O@@......o.o.@@O",
"O@@@@@o#o#o@@@@@O@@@@XoooX@@@@@O",
"O@@@oooooooo@@@@O@@@@X@ooX@@@@@O",
"O@@@@oo@oo@o@@@@O@@@@X@@oX@@@@@O",
"O@@@@@@@@@@o@@@@ @@@@@@@o@@@@@@O",
"OOOOOOOOOOOOOOO   OOOOOOOOOOOOOO"
};
