/* XPM */
/* Drawn  by Nico Shirwing for the K Desktop Environment */
/* See http://www.kde.org */
static char*kmahjongg[]={
"32 32 10 1",
"# c #000000",
"e c #008000",
"d c #ff0000",
"f c #0000ff",
"h c #ff00ff",
"g c #ffffff",
"a c #ffffc0",
"c c #c05800",
"b c #ffdca8",
". c None",
"........#######........#######..",
"........#aaaaaa#.......#aaaaaa#.",
"........#abbbbbc#......#abbbbbc#",
"........#abdbdbc#......#abeeebc#",
"........#abbddbc#......#abbbbbc#",
"........#abddbbc#......#abeeebc#",
"#######.#abbddbc#......#abbbbbc#",
"#aaaaaa##abddbbc#......#abeeebc#",
"#abbbbbc#abbbdbc#......#abbebbc#",
"#abfbfbc#abbbbbc######.#abbbbbc#",
"#abbffbc##ccccc#aaaaaa#g#cccccc#",
"#abffbbc########abbbbbc#.#######",
"#abbffbcaaaaaa##abdbdbc#........",
"#abffbbcabbbbbc#abbddbc#........",
"#abbffbcabeeebc#abddbbc#........",
"#abbbbbcabbbbbc#abbddbc#........",
"##ccccccabeeebc#abddbbc#........",
"#aaaaaa#abbbbbc#abbbdbc#........",
"#abbbbbcabeeebc#abbbbbc#........",
"#abhhbbcabbebbc##cccccc#........",
"#abhhhbcabbbbbcaaaaaa#######....",
"#abbbhbc#ccccccabbbbbcaaaaaa#...",
"#abhbbbc#######abhhbbcabbbbbc#..",
"#abhhhbc#.....#abhhhbcabfbfbc#..",
"#abbhhbc#.....#abbbhbcabbffbc#..",
"#abbbbbc#.....#abhbbbcabffbbc#..",
".#cccccc#.....#abhhhbcabbffbc#..",
"..#######.....#abbhhbcabffbbc#..",
"..............#abbbbbcabbffbc#..",
"...............#ccccccabbbbbc#..",
"................#######cccccc#..",
".......................#######.."};

