/* XPM */
static char*numnew[]={
"22 22 5 1",
"c c #c0c0c0",
"# c #000000",
". c None",
"b c #dcdcdc",
"a c #ffffff",
"......................",
"......................",
"......................",
"......................",
"......#######.........",
"......#aaaabb#........",
"......#aaaacab#.......",
"......#aaaacaab#......",
"......#aaaac####......",
"......#aaaaaccc#......",
"......#aaaaaaaa#......",
"......#a#a##a#a#......",
"......#a#aa#a#a#......",
"......#a#a##a#a#......",
"......#a#a##a#a#......",
"......#a#a##a#a#......",
"......#aaaaaaaa#......",
"......##########......",
"......................",
"......................",
"......................",
"......................"};
