/* XPM */
static char*pause[]={
"22 22 6 1",
"c c #808080",
"d c #c3c3c3",
"# c #000000",
". c None",
"b c #dcdcdc",
"a c #ffffff",
"......................",
"......................",
"......................",
"......................",
".....#####..#####.....",
".....#abb#c.#abb#c....",
".....#abb#c.#abb#c....",
".....#abb#c.#abb#c....",
".....#abb#c.#abb#c....",
".....#abb#c.#abb#c....",
".....#abb#c.#abb#c....",
".....#abb#cd#abb#c....",
".....#abb#cd#abb#c....",
".....#abb#cd#abb#c....",
".....#abb#cd#abb#c....",
".....#aaa#c.#aaa#c....",
".....#####c.#####c....",
"......ccccc..ccccc....",
"......................",
"......................",
"......................",
"......................"};
