/* XPM */
static char*play[]={
"22 22 6 1",
"a c #808080",
"d c #c3c3c3",
"# c #000000",
". c None",
"c c #dcdcdc",
"b c #ffffff",
"......................",
"......................",
"......................",
"......................",
".....######a..........",
".....#bcccc#a.........",
".....#bccccc#a........",
".....#bcccccc#a.......",
".....#bccccccc#ad.....",
".....#bcccccccc#a.....",
".....#bccccccccc#.....",
".....#bccccccccc#.....",
".....#bcccccccc#a.....",
".....#bccccccc#a......",
".....#bcccccc#a.......",
".....#bccccc#a........",
".....#bbbbb#a.........",
".....######a..........",
"......................",
"......................",
"......................",
"......................"};
